<?xml version="1.0" encoding="utf-8"?>
<!DOCTYPE svg PUBLIC "-//W3C//DTD SVG 1.1//EN" "http://www.w3.org/Graphics/SVG/1.1/DTD/svg11.dtd">
<svg version="1.1" id="图形" xmlns="http://www.w3.org/2000/svg" xmlns:xlink="http://www.w3.org/1999/xlink" x="0px" y="0px" width="1024px" height="1024px" viewBox="0 0 1024 1024" enable-background="new 0 0 1024 1024" xml:space="preserve">
  <path fill="#ffffff" d="M804 405.568l-2.272 0c-16.736 0-30.464-4.8-43.68-12.992-11.584 33.76-41.024 58.08-78.944 58.08-16.736 0-32.736-4.8-45.952-12.992-11.584 33.76-41.024 58.08-78.976 58.08-14.784 0-28.544-3.712-40.704-10.208L513.472 572.416c0 47.328-35.808 85.664-83.456 85.664-47.648 0-86.304-38.368-86.304-85.664l0-332.608L291.328 292c-33.696 33.472-93.344 28.704-122.048 0-28.704-28.704-47.52-86.432-6.432-127.552l241.024-239.424c4.96-4.928 10.432-9.056 16.192-12.544 43.936-35.84 94.304-57.056 200.768-57.056 243.232 0 265.76 131.232 265.76 293.088l0 171.36C886.56 367.2 851.68 405.568 804 405.568L804 405.568zM841.12 148.544c0-136.96-0.64-248-220.32-248-93.056 0-148.928 20.736-191.264 62.784l-228.16 226.656c-20.192 20.192-15.104 45.984 1.408 62.528 16.512 16.512 46.848 17.088 62.816 1.248 0 0 40.032-39.776 74.528-74.08 26.08-25.952 49.024-48.736 49.024-48.736L389.152 563.392c0 22.4 18.304 40.576 40.896 40.576 22.592 0 38.016-18.176 38.016-40.576l0-275.072 0.448 0c-0.288-1.44-0.448-2.976-0.448-4.512 0-12.448 10.176-22.56 22.72-22.56 12.544 0 22.72 10.08 22.72 22.56 0 1.536-0.16 3.04-0.448 4.512l0.448 0 0 112.736c0 22.4 16.32 40.576 38.912 40.576 0 0 40 0.544 40-40.576l0-148.8 0.448 0c-0.288-1.44-0.448-2.976-0.448-4.512 0-12.448 10.176-22.56 22.72-22.56 12.544 0 22.72 10.08 22.72 22.56 0 1.536-0.16 3.04-0.448 4.512l0.448 0 0 103.712c0 22.4 16.064 40.576 38.656 40.576 0 0 40.832-2.56 40.832-40.576l0-130.784 0.448 0c-0.288-1.44-0.448-2.976-0.448-4.512 0-12.448 10.176-22.56 22.72-22.56 12.544 0 22.144 10.08 22.144 22.56 0 1.536-0.16 3.04-0.416 4.512l0.416 0 0 89.28c0 22.4 16.832 40.576 39.424 40.576 0 0 39.584 1.6 39.584-40.576L841.216 148.544 841.12 148.544zM310.016 444.672 310.016 520.416C302.816 536.576 298.72 554.464 298.72 573.28c0 71.808 58.208 130.016 130.016 130.016 71.808 0 130.016-58.208 130.016-130.016 0-9.792-1.152-19.328-3.232-28.512 16.352-0.64 31.104-7.424 41.856-18.336 4.16 14.912 6.624 30.56 6.624 46.816 0 96.768-78.464 175.232-175.232 175.232-96.768 0-175.232-78.464-175.232-175.232C253.504 522.368 275.328 476.672 310.016 444.672L310.016 444.672zM310.016 444.672" transform="translate(0, 812) scale(1, -1)"/>
</svg>
