<?xml version="1.0" encoding="utf-8"?>
<!DOCTYPE svg PUBLIC "-//W3C//DTD SVG 1.1//EN" "http://www.w3.org/Graphics/SVG/1.1/DTD/svg11.dtd">
<svg version="1.1" id="图形" xmlns="http://www.w3.org/2000/svg" xmlns:xlink="http://www.w3.org/1999/xlink" x="0px" y="0px" width="1366px" height="1024px" viewBox="0 0 1366 1024" enable-background="new 0 0 1366 1024" xml:space="preserve">
  <path fill="#fff" d="M382.460587 1.333333 339.797333 1.333333 339.797333 769.32992 937.130667 769.32992l0-42.661547 42.67008 0L979.800747 769.32992c0 0 0 42.67008-42.67008 42.67008L339.797333 812c-42.67008 0-42.67008-42.67008-42.67008-42.67008L297.127253 1.333333c0 0 0-42.67008 42.67008-42.67008l42.661547 0L382.45888 1.333333 382.460587 1.333333zM467.792213-212c-42.661547 0-42.661547 42.661547-42.661547 42.661547L425.130667 641.336747c0 0 0 42.661547 42.661547 42.661547l640.001707 0c42.67008 0 42.67008-42.661547 42.67008-42.661547L1150.464 86.666667l-298.666667-298.666667L467.792213-212 467.792213-212zM467.792213-169.338453 851.797333-169.338453 1107.79392 86.666667 1107.79392 641.336747 467.792213 641.336747 467.792213-169.338453 467.792213-169.338453zM847.532373-205.659733c-1.63328 0-3.293867 0.325973-4.870827 0.989867-4.75136 2.005333-33.534293 30.098773-33.534293 35.331413L809.127253 86.666667c0 0 0 42.661547 42.67008 42.661547l298.666667 0c0 0-30.49472-30.42816-34.133333-34.126507L856.538453-201.864107C854.10304-204.3456 850.853547-205.659733 847.532373-205.659733L847.532373-205.659733zM851.797333 86.666667l0-256.003413L1107.79392 86.666667 851.797333 86.666667 851.797333 86.666667zM1022.462293 385.331627 681.125547 385.331627l0 42.67008 341.336747 0L1022.462293 385.331627 1022.462293 385.331627zM1022.462293 257.32992 681.125547 257.32992 681.125547 300l341.336747 0L1022.462293 257.32992 1022.462293 257.32992zM851.797333 555.996587l-128.001707 0L723.795627 513.333333 851.797333 513.333333 851.797333 555.996587 851.797333 555.996587zM553.132373 428.001707 638.464 428.001707l0-42.67008-85.331627 0L553.132373 428.001707 553.132373 428.001707zM553.132373 300 638.464 300l0-42.67008-85.331627 0L553.132373 300 553.132373 300zM553.132373 300" transform="translate(0, 812) scale(1, -1)"/>
</svg>
