<?xml version="1.0" encoding="utf-8"?>
<!DOCTYPE svg PUBLIC "-//W3C//DTD SVG 1.1//EN" "http://www.w3.org/Graphics/SVG/1.1/DTD/svg11.dtd">
<svg version="1.1" id="图形" xmlns="http://www.w3.org/2000/svg" xmlns:xlink="http://www.w3.org/1999/xlink" x="0px" y="0px" width="1024px" height="1024px" viewBox="0 0 1024 1024" enable-background="new 0 0 1024 1024" xml:space="preserve">
  <path fill="#00bb9c" d="M54.549504-26.157312M64.463872 301.165312c0-17.584128 4.48512-32.93184 12.177408-46.889984 43.705344-79.361024 100.08576-152.830976 167.713792-220.470272 68.5312-68.530176 141.648896-123.836416 220.470272-167.718912 12.708864-7.063552 28.85632-11.722752 46.889984-11.722752 17.583104 0 33.654784 4.33152 46.889984 11.722752 77.843456 43.564032 152.162304 99.423232 220.914688 167.718912 67.852288 67.402752 124.370944 141.606912 168.615936 222.724096 7.156736 13.111296 10.819584 27.953152 10.819584 44.635136 0 16.231424-3.720192 31.04256-11.271168 44.634112-44.751872 80.638976-99.857408 154.418176-168.165376 222.718976-68.753408 68.760576-143.686656 125.142016-224.523264 169.5232-11.136 6.115328-27.056128 10.364928-43.282432 10.364928-18.033664 0-24.439808-5.250048-38.327296-13.070336-78.984192-44.470272-161.741824-99.746816-229.031936-166.817792-68.868096-68.63872-123.999232-143.159296-168.164352-221.816832C68.957184 333.824768 64.463872 318.747392 64.463872 301.165312zM968.418304-26.157312" transform="translate(0, 812) scale(1, -1)"/>
</svg>
