<?xml version="1.0" encoding="utf-8"?>
<!DOCTYPE svg PUBLIC "-//W3C//DTD SVG 1.1//EN" "http://www.w3.org/Graphics/SVG/1.1/DTD/svg11.dtd">
<svg version="1.1" id="图形" xmlns="http://www.w3.org/2000/svg" xmlns:xlink="http://www.w3.org/1999/xlink" x="0px" y="0px" width="1024px" height="1024px" viewBox="0 0 1024 1024" enable-background="new 0 0 1024 1024" xml:space="preserve">
  <path fill="#fff" d="M915.056 396l-78.768 0c-7.424 16-17.952 49.28-31.424 72.992l55.632 54.064c17.568 17.568 17.584 45.2 0.032 62.736l-63.504 63.12c-17.536 17.536-45.968 17.344-63.536-0.208l-52.528-55.712C657.28 606.448 624 616.896 608 624.32L608 703.072C608 727.904 581.696 748 556.912 748l-89.808 0C442.304 748 416 727.904 416 703.072l0-78.768c-16-7.424-49.264-17.952-72.976-31.408l-54.08 55.632c-17.568 17.568-45.216 17.568-62.736 0.032l-63.12-63.52c-17.52-17.52-17.36-45.952 0.208-63.536l55.728-52.528C205.552 445.264 195.12 412 187.696 396L108.944 396C84.096 396 64 369.696 64 344.912l0-89.808C64 230.32 84.096 204 108.944 204l78.768 0c7.424-16 17.968-49.264 31.408-72.976l-55.632-54.096c-17.568-17.568-17.568-45.184-0.032-62.72l63.504-63.136c17.52-17.52 45.968-17.344 63.536 0.224l52.528 55.728C366.736-6.432 400-16.88 416-24.304l0-78.768C416-127.904 442.304-148 467.088-148l89.808 0C581.68-148 608-127.904 608-103.056l0 78.768c16 7.424 49.264 17.968 72.992 31.424l54.08-55.632c17.568-17.568 45.184-17.568 62.72-0.032l63.136 63.504c17.52 17.536 17.344 45.968-0.224 63.536l-55.728 52.528C818.432 154.752 828.88 188 836.304 204l78.768 0C939.904 204 960 230.304 960 255.088l0 89.808C960 369.696 939.904 396 915.056 396zM512 97.968c-111.6 0-202.064 90.464-202.064 202.048 0 111.6 90.464 202.064 202.064 202.064 111.616 0 202.064-90.464 202.064-202.064C714.064 188.432 623.616 97.968 512 97.968z" transform="translate(0, 812) scale(1, -1)"/>
</svg>
