<?xml version="1.0" encoding="utf-8"?>
<!DOCTYPE svg PUBLIC "-//W3C//DTD SVG 1.1//EN" "http://www.w3.org/Graphics/SVG/1.1/DTD/svg11.dtd">
<svg version="1.1" id="图形" xmlns="http://www.w3.org/2000/svg" xmlns:xlink="http://www.w3.org/1999/xlink" x="0px" y="0px" width="1024px" height="1024px" viewBox="0 0 1024 1024" enable-background="new 0 0 1024 1024" xml:space="preserve">
  <path fill="#fff" d="M507.612 742.572c-11.287 0-20.219-3.343-26.677-10.176-6.577-6.687-11.667-14.873-15.132-24.178L363.341 471.656 88.32 446.967c-6.458-1.237-12.406-4.097-17.739-8.794-5.339-4.726-8.698-11.169-9.812-19.481-1.236-8.186 0.755-16.26 5.718-24.201 5.091-7.924 11.16-15.12 18.222-21.711l9.812-8.312 22.705-19.479c9.304-7.922 19.598-16.741 31.255-26.411l35.104-29.531c27.913-23.551 59.289-50.346 94.4-80.363l-30.262-123.563c-4.214-15.869-8.19-31.375-12.031-46.764-3.839-15.262-7.33-29.263-10.299-41.936-2.979-12.649-5.583-23.429-7.933-32.611l-4.468-17.248c-1.25-5.213-0.618-10.419 1.733-15.384 2.36-4.968 6.078-9.306 11.169-12.771 4.965-3.609 10.659-5.718 16.861-6.71 1.381-0.195 2.75-0.268 4.116-0.268 4.775 0 9.492 1.163 14.129 3.367 2.979 1.259 8.809 4.213 17.371 8.818 8.677 4.7 18.849 10.662 30.759 17.733 11.787 7.077 25.069 14.635 39.583 22.946 14.507 8.187 29.264 16.499 44.021 24.689 34.5 19.355 72.701 41.43 114.884 66.115l232.342-134.1 12.916-4.822c5.575-2.107 9.909-3.1 12.889-3.1 8.941 0 16.873 1.986 24.071 5.693 7.061 3.85 9.805 11.65 7.935 23.452-0.619 2.353-1.731 8.064-3.467 17.248l-6.71 32.972c-2.728 13.039-5.572 27.43-8.43 43.3-2.979 15.89-6.322 31.761-9.802 47.63-7.814 37.723-16.62 79.786-26.783 126.154L926.916 373.65c7.689 8.94 14.016 16.381 19.103 22.581 5.086 6.201 7.57 13.399 7.57 21.589 0 8.794-2.359 15.263-7.077 19.478-4.844 4.098-13.152 7.558-24.931 10.542l-275.142 25.559L546.809 709.96c-1.236 2.352-2.847 5.208-4.956 8.794-2.106 3.465-4.588 7.077-7.572 10.541-2.978 3.607-6.686 6.707-11.032 9.301C518.773 741.214 513.563 742.572 507.612 742.572" transform="translate(0, 812) scale(1, -1)"/>
</svg>
